<svg data-v-fde0c5aa="" xmlns="http://www.w3.org/2000/svg" viewBox="0 0 300 300" class="iconLeft"><!----><defs data-v-fde0c5aa=""><!----></defs><rect data-v-fde0c5aa="" fill="transparent" x="0" y="0" width="300px" height="300px" class="logo-background-square"></rect><defs data-v-fde0c5aa=""><!----></defs><g data-v-fde0c5aa="" id="59fca01e-9767-4b58-9ae4-7727ee58be3b" fill="#000000" transform="matrix(2.2294269789224908,0,0,2.2294269789224908,84.5886927903898,135.11857475623134)"><path d="M7.51 2.10L-0.09 2.10L-0.09 4.15L2.57 4.15L2.57 12.60L4.87 12.60L4.87 4.15L7.51 4.15ZM16.33 5.60L15.14 10.26L13.63 5.60L11.88 5.60L10.40 10.24L9.22 5.60L6.69 5.60L9.10 12.60L11.45 12.60L12.76 8.65L14.07 12.60L16.43 12.60L18.81 5.60ZM26.90 9.08C26.90 6.90 25.39 5.44 23.13 5.44C20.88 5.44 19.29 6.91 19.29 9.10C19.29 11.29 20.86 12.74 23.20 12.74C25.15 12.74 26.44 11.71 26.79 10.19L24.64 10.19C24.45 10.75 23.94 11.08 23.17 11.08C22.16 11.08 21.63 10.47 21.54 9.47L26.90 9.47ZM23.17 7.16C23.92 7.16 24.36 7.51 24.59 8.12L21.68 8.12C21.91 7.53 22.38 7.16 23.17 7.16ZM35.58 9.08C35.58 6.90 34.07 5.44 31.81 5.44C29.56 5.44 27.96 6.91 27.96 9.10C27.96 11.29 29.54 12.74 31.88 12.74C33.83 12.74 35.12 11.71 35.47 10.19L33.32 10.19C33.13 10.75 32.62 11.08 31.85 11.08C30.84 11.08 30.31 10.47 30.22 9.47L35.58 9.47ZM31.85 7.16C32.60 7.16 33.04 7.51 33.27 8.12L30.36 8.12C30.59 7.53 31.06 7.16 31.85 7.16ZM41.35 7.33L41.35 5.60L39.69 5.60L39.69 2.91L37.47 2.91L37.47 5.60L36.30 5.60L36.30 7.33L37.47 7.33L37.47 10.10C37.47 11.59 38.73 12.74 40.22 12.74C40.69 12.74 41.16 12.64 41.34 12.51L41.34 10.78L40.49 10.78C40.02 10.78 39.69 10.41 39.69 9.84L39.69 7.33ZM47.74 12.74C49.82 12.74 51.63 11.57 52.52 9.85L50.52 8.82C50.02 9.82 48.98 10.48 47.74 10.48C45.97 10.48 44.63 9.12 44.63 7.35C44.63 5.58 45.97 4.22 47.74 4.22C48.98 4.22 50.02 4.88 50.52 5.88L52.52 4.85C51.63 3.13 49.82 1.96 47.74 1.96C44.77 1.96 42.35 4.38 42.35 7.35C42.35 10.33 44.77 12.74 47.74 12.74ZM58.21 5.46C57.38 5.46 56.70 5.88 56.25 6.56L56.25 5.60L54.01 5.60L54.01 12.60L56.25 12.60L56.25 9.26C56.25 8.10 57.03 7.44 58.14 7.44C58.40 7.44 58.63 7.47 58.78 7.51L58.78 5.53C58.63 5.48 58.42 5.46 58.21 5.46ZM67.59 10.78C67.29 10.78 66.97 10.68 66.97 10.10L66.97 5.60L64.75 5.60L64.75 6.21C64.23 5.74 63.56 5.46 62.76 5.46C60.81 5.46 59.29 7.07 59.29 9.10C59.29 11.13 60.81 12.74 62.76 12.74C63.77 12.74 64.59 12.29 65.15 11.55C65.59 12.27 66.36 12.74 67.31 12.74C67.53 12.74 67.74 12.67 67.90 12.60L67.90 10.78ZM63.19 10.76C62.27 10.76 61.53 10.03 61.53 9.10C61.53 8.17 62.27 7.44 63.19 7.44C64.10 7.44 64.86 8.17 64.86 9.10C64.86 10.03 64.10 10.76 63.19 10.76ZM73.43 5.60L71.77 5.60L71.77 3.50C71.77 2.92 72.08 2.57 72.56 2.57L73.40 2.57L73.40 0.82C73.22 0.70 72.75 0.61 72.28 0.61C70.79 0.61 69.53 1.75 69.53 3.24L69.53 5.60L68.36 5.60L68.36 7.33L69.53 7.33L69.53 12.60L71.77 12.60L71.77 7.33L73.43 7.33ZM78.68 7.33L78.68 5.60L77.02 5.60L77.02 2.91L74.80 2.91L74.80 5.60L73.62 5.60L73.62 7.33L74.80 7.33L74.80 10.10C74.80 11.59 76.06 12.74 77.54 12.74C78.02 12.74 78.49 12.64 78.66 12.51L78.66 10.78L77.82 10.78C77.35 10.78 77.02 10.41 77.02 9.84L77.02 7.33Z"></path></g><defs data-v-fde0c5aa=""><linearGradient data-v-fde0c5aa="" gradientTransform="rotate(25)" id="7bcb7b25-eb91-4557-9367-8b23bf01b1fb" x1="0%" y1="0%" x2="100%" y2="0%"><stop data-v-fde0c5aa="" offset="0%" stop-color="#01648B" stop-opacity="1"></stop><stop data-v-fde0c5aa="" offset="100%" stop-color="#5BD0A4" stop-opacity="1"></stop></linearGradient></defs><g data-v-fde0c5aa="" id="10140dff-cdc7-4b85-b72c-8e4b8aad2557" stroke="none" fill="url(#7bcb7b25-eb91-4557-9367-8b23bf01b1fb)" transform="matrix(0.41471402365838267,0,0,0.41471402365838267,34.61576791310766,129.30307384424103)"><g clip-rule="evenodd"><path d="M12.983 10.59l17.018 88.223-5.872-59.049 29.021-1.892-.054-9.883L64.549 1 53.622 18.977z"></path><path d="M59.389 54.548l5.16-53.541-8.74 39.716-19.612 1.045 1.57 20.462-7.766 36.583 12.057-39.899z"></path><path d="M62.8 67.182l.549-10.453-15.979 3.755-.032 11.797-17.337 26.532 21.68-27.616zM65.711 62.394l14.841-4.731 1.509-12.532-15.899 2.095zM72.07 44.502l10.988-1.417 1.581-10.278-8.079-.373L64.549 1l8.43 30.967z"></path><path d="M87.413 31.294l1.256-9.506-9.544-2.694L64.549 1l14.483 22.437-.422 7z"></path></g></g><!----></svg>